<?xml version="1.0" encoding="UTF-8"?>
<svg width="128" height="128" viewBox="0 0 128 128" fill="none" xmlns="http://www.w3.org/2000/svg">
    <!-- Fond -->
    <rect width="128" height="128" rx="24" fill="#F3F4F6"/>
    
    <!-- Système -->
    <g transform="translate(24, 24)">
        <!-- CPU -->
        <path d="M20 20h60v60H20z" fill="#3B82F6" fill-opacity="0.1"/>
        <path d="M30 30h40v40H30z" fill="#3B82F6" fill-opacity="0.2"/>
        
        <!-- Pins -->
        <path d="M25 25h5v5h-5z" fill="#3B82F6"/>
        <path d="M35 25h5v5h-5z" fill="#3B82F6"/>
        <path d="M45 25h5v5h-5z" fill="#3B82F6"/>
        <path d="M55 25h5v5h-5z" fill="#3B82F6"/>
        
        <path d="M25 35h5v5h-5z" fill="#3B82F6"/>
        <path d="M55 35h5v5h-5z" fill="#3B82F6"/>
        
        <path d="M25 45h5v5h-5z" fill="#3B82F6"/>
        <path d="M55 45h5v5h-5z" fill="#3B82F6"/>
        
        <path d="M25 55h5v5h-5z" fill="#3B82F6"/>
        <path d="M35 55h5v5h-5z" fill="#3B82F6"/>
        <path d="M45 55h5v5h-5z" fill="#3B82F6"/>
        <path d="M55 55h5v5h-5z" fill="#3B82F6"/>
        
        <!-- Ventilateur -->
        <circle cx="50" cy="50" r="15" fill="#3B82F6" fill-opacity="0.1"/>
        <path d="M50 35h2v30h-2z" fill="#3B82F6"/>
        <path d="M35 50h30v2H35z" fill="#3B82F6"/>
        <path d="M40 40l2 2l-2 2l-2-2z" fill="#3B82F6"/>
        <path d="M60 40l2 2l-2 2l-2-2z" fill="#3B82F6"/>
        <path d="M40 60l2 2l-2 2l-2-2z" fill="#3B82F6"/>
        <path d="M60 60l2 2l-2 2l-2-2z" fill="#3B82F6"/>
    </g>
</svg> 